<svg class="animated" id="freepik_stories-muzzle" xmlns="http://www.w3.org/2000/svg" viewBox="0 0 500 500" version="1.1" xmlns:xlink="http://www.w3.org/1999/xlink" xmlns:svgjs="http://svgjs.com/svgjs"><style>svg#freepik_stories-muzzle:not(.animated) .animable {opacity: 0;}svg#freepik_stories-muzzle.animated #freepik--Trees--inject-66 {animation: 1.5s Infinite  linear wind;animation-delay: 0s;}svg#freepik_stories-muzzle.animated #freepik--Sun--inject-66 {animation: 1.5s Infinite  linear heartbeat;animation-delay: 0s;}svg#freepik_stories-muzzle.animated #freepik--Dog--inject-66 {animation: 1.5s Infinite  linear floating;animation-delay: 0s;}            @keyframes wind {                0% {                    transform: rotate( 0deg );                }                25% {                    transform: rotate( 1deg );                }                75% {                    transform: rotate( -1deg );                }            }                    @keyframes heartbeat {                0% {                    transform: scale(1);                }                10% {                    transform: scale(1.1);                }                30% {                    transform: scale(1);                }                40% {                    transform: scale(1);                }                50% {                    transform: scale(1.1);                }                60% {                    transform: scale(1);                }                100% {                    transform: scale(1);                }            }                    @keyframes floating {                0% {                    opacity: 1;                    transform: translateY(0px);                }                50% {                    transform: translateY(-10px);                }                100% {                    opacity: 1;                    transform: translateY(0px);                }            }        </style><g id="freepik--City--inject-66" class="animable" style="transform-origin: 251.055px 211.35px;"><g id="freepik--city--inject-66" class="animable" style="transform-origin: 251.055px 211.35px;"><path d="M15.83,168.43V312.61H486.28v-116l-16.8-9.7V149.7l-16.8-9.7-29.4,17V122.22l-21-12.13L376.9,124.77v42l-20.83-12V134.21l-21-12.13-50.41,29.11v7.39l-18.32,10.51-15.13-8.94-17,9.84V131.28l-25.2-14.55-16.8,9.7v36.33l-16.8-9.7-31.6,18.24V149.54L125,138.64l-21,12.13v17.36L95.64,173V156.3l-21-12.12V119.92l-16.8-9.7L41,119.92v48.51l-12.6-7.28Z" style="fill: rgb(240, 240, 240); transform-origin: 251.055px 211.35px;" id="el4qhk9vuf3j5" class="animable"></path></g></g><g id="freepik--Trees--inject-66" class="animable" style="transform-origin: 104.919px 137.402px;"><g id="freepik--Tree--inject-66" class="animable" style="transform-origin: 146.558px 137.634px;"><path d="M154.71,125c.52,4-4.39,7.38-8.65,6.61.26,2.42-3.15,3.82-4.52,2.58,1.37,1.79,3.6,7.44,0,10.52s-8.26,1.32-8.26,1.32-1.69,4.21-8.1,3.08-7.73-7.66-7-10c-4.21,2.43-12.75.57-16.58-5.09s-3.52-12.68-.26-15.88c-2.23-2.1-1.51-5.45-.19-7a4.08,4.08,0,0,1,3.21-1.42s-1.81-2.09.31-3.5c-3-1.76-4.39-8,.44-12.75s12.08-2.83,12.08-2.83a10.26,10.26,0,0,1,1.71-8.79,9,9,0,0,1,7.32-3.2s-.2-3.34,3.07-3.51c-1.9-3.44-.1-7.78,2.39-9.69,4.63-3.54,16.43-4.48,16.36,4.34,4.79-3.68,12,1.3,10.84,6.22,4-3.44,10.34,1.21,8.85,6,5.73-1.63,11.7,5.17,8.51,11.49,2.22-1.28,7.27-.36,7.13,3.89a5.55,5.55,0,0,1,6.91,3.85,5.91,5.91,0,0,1-2.72,6.83c2.15-.31,3.47,3.28,2,4.34,4.21,0,7.06,8.81,1.93,11.72,2.95,2.07,4.43,14.66-4.61,19.75s-22.05,2-22.71-6.24c-3.83-.95-5.45-5.07-2.87-7.33C158.84,131.27,155,128.13,154.71,125Z" style="fill: rgb(0, 255, 136); transform-origin: 146.528px 106.099px;" id="el09m983pt8wx8" class="animable"></path><path d="M186.94,143.84c9-5.09,7.56-17.68,4.61-19.75,5.13-2.91,2.28-11.72-1.93-11.72,1.44-1.06.12-4.65-2-4.34a5.91,5.91,0,0,0,2.72-6.83,5.49,5.49,0,0,0-2.66-3.38c1.84,3,1.09,8.12-3.85,9.18a6.51,6.51,0,0,1-6.51-2.13s-1,1.8-5.66,1.22a6.8,6.8,0,0,1-5.72-8.81c2.18-3.67-1.22-8.16-5.61-7.48.21,9.25-7.79,12-15.34,8.43,3.68,9.26-4.35,13.75-8.43,9.66-1.36,3.4-5.85,3-7.89,1-2,2.17-8.44,0-8.44-5.17-3.81,4.76-10.61,3.4-11.15-1.64-2.9,3.81-6.53,1.67-6.91.18a6,6,0,0,0,2.56,4c-2.12,1.41-.31,3.5-.31,3.5a4.08,4.08,0,0,0-3.21,1.42c-1.32,1.57-2,4.92.19,7-3.26,3.2-3.58,10.23.26,15.88s12.37,7.52,16.58,5.09c-.76,2.33.56,8.86,7,10s8.1-3.08,8.1-3.08,4.65,1.76,8.26-1.32,1.37-8.73,0-10.52c1.37,1.24,4.78-.16,4.52-2.58,4.26.77,9.17-2.59,8.65-6.61.24,3.13,4.13,6.27,6.65,5.27-2.58,2.26-1,6.38,2.87,7.33C164.89,145.85,177.89,148.93,186.94,143.84Z" style="fill: rgb(0, 255, 136); transform-origin: 146.586px 119.538px;" id="el3umsouq5la4" class="animable"></path><g id="elsdpk0zltlt"><path d="M186.94,143.84c9-5.09,7.56-17.68,4.61-19.75,5.13-2.91,2.28-11.72-1.93-11.72,1.44-1.06.12-4.65-2-4.34a5.91,5.91,0,0,0,2.72-6.83,5.49,5.49,0,0,0-2.66-3.38c1.84,3,1.09,8.12-3.85,9.18a6.51,6.51,0,0,1-6.51-2.13s-1,1.8-5.66,1.22a6.8,6.8,0,0,1-5.72-8.81c2.18-3.67-1.22-8.16-5.61-7.48.21,9.25-7.79,12-15.34,8.43,3.68,9.26-4.35,13.75-8.43,9.66-1.36,3.4-5.85,3-7.89,1-2,2.17-8.44,0-8.44-5.17-3.81,4.76-10.61,3.4-11.15-1.64-2.9,3.81-6.53,1.67-6.91.18a6,6,0,0,0,2.56,4c-2.12,1.41-.31,3.5-.31,3.5a4.08,4.08,0,0,0-3.21,1.42c-1.32,1.57-2,4.92.19,7-3.26,3.2-3.58,10.23.26,15.88s12.37,7.52,16.58,5.09c-.76,2.33.56,8.86,7,10s8.1-3.08,8.1-3.08,4.65,1.76,8.26-1.32,1.37-8.73,0-10.52c1.37,1.24,4.78-.16,4.52-2.58,4.26.77,9.17-2.59,8.65-6.61.24,3.13,4.13,6.27,6.65,5.27-2.58,2.26-1,6.38,2.87,7.33C164.89,145.85,177.89,148.93,186.94,143.84Z" style="opacity: 0.2; transform-origin: 146.586px 119.538px;" class="animable"></path></g><path d="M136.63,117.72s-8.12,2.41-10.38-3.41c-4.14,2.39-11.88,1.8-14.49-3.41-4.41,0-7.06-4.69-7.06-4.69-2.12,1.41-.31,3.5-.31,3.5a4.08,4.08,0,0,0-3.21,1.42c-1.32,1.57-2,4.92.19,7a7.54,7.54,0,0,0-.93,1.15c-1.35,3.54,3.31,6.23,6.2,4.54-1.1,3.61,3,14.44,14.44,9.92,6.82,4.32,13.74-.9,12.84-10.43C137.32,123.33,138.94,119.62,136.63,117.72Z" style="fill: rgb(0, 255, 136); transform-origin: 118.832px 120.742px;" id="elaimhd5gb2mi" class="animable"></path><path d="M179.85,127.35a10.48,10.48,0,0,0,2.51-8.53s-3.44,5-10.63,1.93-3.31-10.15-3.31-10.15-5.52.45-4.51-4.39c-1.79.89-4.52-.12-4.52-3.63-.79,6.07-5.91,9-12.33,7.62,4.31,1.6,4,4.94,1,7.33-3.4,3.41-3,11.93,5.17,11.63a5.14,5.14,0,0,0,1.48-4.16c.24,3.13,4.13,6.27,6.65,5.27h0s2.35,2.09,5.15-.62C168.57,131.71,176.35,131.52,179.85,127.35Z" style="fill: rgb(0, 255, 136); transform-origin: 164.264px 116.81px;" id="eljzxfclx19vh" class="animable"></path><g id="elj2t1z7iet6l"><path d="M146.38,98.48c7.79-4.41,3.46-17.78-2.92-17.78,2.18-1.59.18-7-3.08-6.57,3.42-2.28,5.37-5.78,4.13-10.35v0a9.24,9.24,0,0,0-2.68-.76,15.55,15.55,0,0,0-7.76,1.11,8.6,8.6,0,0,0-5.52,8,6.4,6.4,0,0,0,.78,3c-3.27.17-3.07,3.51-3.07,3.51a9,9,0,0,0-7.32,3.2,10.26,10.26,0,0,0-1.71,8.79s-7.24-1.88-12.08,2.83-3.45,11-.44,12.75c-2.12,1.41-.31,3.5-.31,3.5a4.08,4.08,0,0,0-3.21,1.42,5.77,5.77,0,0,0-1.13,4.64A8.62,8.62,0,0,0,105,119c1,12.51,20.72,17.18,34.43,9.47S150.86,101.63,146.38,98.48Z" style="opacity: 0.1; transform-origin: 125.261px 97.5714px;" class="animable"></path></g><path d="M170.66,142.86s6.42-9.39,6.07-10.12-6.07,8.6-9.62,11.13-10.62,6.83-12.39,6.83-1.9-2.15-1.27-6.32.77-5.32,3.68-9.11,11.22-14.07,10.74-14.55-11,13-13.66,14.67-4.82-9.36-5.69-9.36,2.51,7.87,2.72,11.54-.19,8.07-1.84,9.21-6.13-2.4-9-5.57-3-16.82-4.11-16.82.73,12.54.73,13.75c0,2.64-11.12-4.59-13.13-4.26s10.24,4.69,15.05,9.36c4.2,4.07,4.91,5.35,6.35,8.36,1.51,3.2,2,7.33,2,19.09S144,201.31,144,208.6a3.27,3.27,0,0,0,1.91,2.67,10.27,10.27,0,0,0,9.26,0,3.26,3.26,0,0,0,1.92-2.67h0c0-7.29-3.17-26.14-3.17-37.91s.47-16.16,4-18.64,9.45-6.88,12.09-7.67,10.25.5,10.25,0S170.66,142.86,170.66,142.86Z" style="fill: rgb(0, 255, 136); transform-origin: 151.965px 166.54px;" id="elchmtb0g4g3s" class="animable"></path><g id="ely64axpdfyn"><path d="M170.66,142.86s6.42-9.39,6.07-10.12-6.07,8.6-9.62,11.13-10.62,6.83-12.39,6.83-1.9-2.15-1.27-6.32.77-5.32,3.68-9.11,11.22-14.07,10.74-14.55-11,13-13.66,14.67-4.82-9.36-5.69-9.36,2.51,7.87,2.72,11.54-.19,8.07-1.84,9.21-6.13-2.4-9-5.57-3-16.82-4.11-16.82.73,12.54.73,13.75c0,2.64-11.12-4.59-13.13-4.26s10.24,4.69,15.05,9.36c4.2,4.07,4.91,5.35,6.35,8.36,1.51,3.2,2,7.33,2,19.09S144,201.31,144,208.6a3.27,3.27,0,0,0,1.91,2.67,10.27,10.27,0,0,0,9.26,0,3.26,3.26,0,0,0,1.92-2.67h0c0-7.29-3.17-26.14-3.17-37.91s.47-16.16,4-18.64,9.45-6.88,12.09-7.67,10.25.5,10.25,0S170.66,142.86,170.66,142.86Z" style="opacity: 0.4; transform-origin: 151.965px 166.54px;" class="animable"></path></g></g><g id="freepik--tree--inject-66" class="animable" style="transform-origin: 81.0524px 137.402px;"><path d="M92.22,120.11c.71,5.53-6,10.14-11.87,9.08.35,3.33-4.33,5.24-6.21,3.54,1.88,2.46,5,10.22,0,14.44S62.81,149,62.81,149s-2.33,5.78-11.12,4.23-10.61-10.52-9.57-13.71c-5.77,3.33-17.5.77-22.76-7s-4.83-17.41-.35-21.81c-3.06-2.89-2.08-7.47-.27-9.63a5.65,5.65,0,0,1,4.41-2s-2.48-2.86.43-4.8c-4.14-2.41-6-11,.61-17.5s16.57-3.88,16.57-3.88a14.09,14.09,0,0,1,2.35-12.07c3.78-4.88,10-4.39,10-4.39s-.27-4.58,4.21-4.82c-2.6-4.72-.13-10.68,3.29-13.3,6.35-4.85,22.54-6.15,22.45,6,6.58-5,16.46,1.78,14.87,8.53,5.43-4.72,14.2,1.67,12.16,8.19,7.86-2.23,16.06,7.11,11.67,15.79,3.06-1.77,10-.5,9.8,5.34a7.62,7.62,0,0,1,9.48,5.27c1.12,4.14-.64,7.31-3.74,9.38,3-.43,4.77,4.51,2.79,6,5.78,0,9.7,12.1,2.64,16.1,4.06,2.84,6.09,20.12-6.32,27.11s-30.26,2.75-31.17-8.58c-5.26-1.29-7.48-7-3.94-10.06C97.9,128.72,92.55,124.41,92.22,120.11Z" style="fill: rgb(0, 255, 136); transform-origin: 81.0274px 94.1569px;" id="elqmqq1emnlv" class="animable"></path><g id="elgx5so6brkrn"><path d="M92.22,120.11c.71,5.53-6,10.14-11.87,9.08.35,3.33-4.33,5.24-6.21,3.54,1.88,2.46,5,10.22,0,14.44S62.81,149,62.81,149s-2.33,5.78-11.12,4.23-10.61-10.52-9.57-13.71c-5.77,3.33-17.5.77-22.76-7s-4.83-17.41-.35-21.81c-3.06-2.89-2.08-7.47-.27-9.63a5.65,5.65,0,0,1,4.41-2s-2.48-2.86.43-4.8c-4.14-2.41-6-11,.61-17.5s16.57-3.88,16.57-3.88a14.09,14.09,0,0,1,2.35-12.07c3.78-4.88,10-4.39,10-4.39s-.27-4.58,4.21-4.82c-2.6-4.72-.13-10.68,3.29-13.3,6.35-4.85,22.54-6.15,22.45,6,6.58-5,16.46,1.78,14.87,8.53,5.43-4.72,14.2,1.67,12.16,8.19,7.86-2.23,16.06,7.11,11.67,15.79,3.06-1.77,10-.5,9.8,5.34a7.62,7.62,0,0,1,9.48,5.27c1.12,4.14-.64,7.31-3.74,9.38,3-.43,4.77,4.51,2.79,6,5.78,0,9.7,12.1,2.64,16.1,4.06,2.84,6.09,20.12-6.32,27.11s-30.26,2.75-31.17-8.58c-5.26-1.29-7.48-7-3.94-10.06C97.9,128.72,92.55,124.41,92.22,120.11Z" style="fill: rgb(255, 255, 255); opacity: 0.2; transform-origin: 81.0274px 94.1569px;" class="animable"></path></g><path d="M136.46,146c12.41-7,10.38-24.27,6.32-27.11,7.06-4,3.14-16.1-2.64-16.1,2-1.44.17-6.38-2.79-6,3.1-2.07,4.86-5.24,3.74-9.38a7.55,7.55,0,0,0-3.66-4.63c2.53,4.06,1.5,11.14-5.27,12.59a8.91,8.91,0,0,1-8.94-2.92s-1.43,2.47-7.77,1.68a9.34,9.34,0,0,1-7.85-12.09c3-5-1.68-11.21-7.71-10.27.29,12.7-10.69,16.53-21,11.58,5,12.69-6,18.86-11.57,13.25-1.87,4.67-8,4.11-10.83,1.31-2.81,3-11.58,0-11.58-7.09-5.23,6.53-14.57,4.66-15.31-2.25-4,5.22-9,2.29-9.48.24a8.17,8.17,0,0,0,3.51,5.48c-2.91,1.94-.43,4.8-.43,4.8a5.65,5.65,0,0,0-4.41,2c-1.81,2.16-2.79,6.74.27,9.63-4.48,4.4-4.91,14.05.35,21.81s17,10.31,22.76,7c-1,3.19.77,12.15,9.57,13.71S62.81,149,62.81,149s6.38,2.42,11.33-1.81,1.88-12,0-14.44c1.88,1.7,6.56-.21,6.21-3.54,5.85,1.06,12.58-3.55,11.87-9.08.33,4.3,5.68,8.61,9.13,7.23-3.54,3.11-1.32,8.77,3.94,10.06C106.2,148.73,124,153,136.46,146Z" style="fill: rgb(0, 255, 136); transform-origin: 81.0774px 112.591px;" id="eli5lnfvjlhj" class="animable"></path><g id="elelx3viui91"><path d="M67.4,110.12s-11.15,3.3-14.24-4.68c-5.69,3.28-16.31,2.48-19.89-4.68-6.06,0-9.69-6.44-9.69-6.44-2.91,1.94-.43,4.8-.43,4.8a5.65,5.65,0,0,0-4.41,2c-1.81,2.16-2.79,6.74.27,9.63a10.34,10.34,0,0,0-1.27,1.58c-1.86,4.86,4.53,8.56,8.51,6.23-1.52,5,4.13,19.82,19.82,13.62,9.36,5.92,18.86-1.23,17.62-14.31C68.35,117.83,70.57,112.74,67.4,110.12Z" style="fill: rgb(255, 255, 255); opacity: 0.2; transform-origin: 42.9617px 114.301px;" class="animable"></path></g><g id="elgagryxu4xit"><path d="M126.73,123.33a14.39,14.39,0,0,0,3.44-11.7s-4.72,6.86-14.59,2.65S111,100.35,111,100.35s-7.57.61-6.19-6c-2.45,1.22-6.2-.17-6.2-5-1.09,8.35-8.11,12.38-16.93,10.47,5.92,2.2,5.51,6.78,1.38,10.07-4.67,4.67-4.1,16.37,7.1,15.95a7,7,0,0,0,2-5.71c.33,4.3,5.68,8.61,9.13,7.23h0s3.22,2.88,7.07-.84C111.25,129.32,121.92,129.06,126.73,123.33Z" style="fill: rgb(255, 255, 255); opacity: 0.2; transform-origin: 105.318px 108.887px;" class="animable"></path></g><path d="M114.11,144.63s8.82-12.89,8.34-13.89-8.34,11.8-13.2,15.28-14.59,9.37-17,9.37-2.6-2.95-1.74-8.68,1.07-7.29,5.05-12.5,15.41-19.31,14.75-20-15.15,17.84-18.75,20.14-6.62-12.85-7.82-12.85,3.45,10.81,3.74,15.84-.27,11.08-2.52,12.64-8.42-3.3-12.42-7.64-4.08-23.09-5.64-23.09,1,17.21,1,18.87c0,3.62-15.26-6.29-18-5.85s14,6.44,20.66,12.85c5.76,5.58,6.75,7.34,8.71,11.48,2.09,4.39,2.69,10.05,2.69,26.2s-4.35,42-4.35,52c0,1.33.88,2.66,2.63,3.67a14.09,14.09,0,0,0,12.71,0c1.75-1,2.63-2.34,2.63-3.67h0c0-10-4.35-35.88-4.35-52s.65-22.18,5.45-25.59,13-9.44,16.6-10.53,14.07.7,14.07,0S114.11,144.63,114.11,144.63Z" style="fill: rgb(0, 255, 136); transform-origin: 88.4749px 177.088px;" id="el6bsrmhom7hh" class="animable"></path><g id="elqe82jqjn6x"><path d="M114.11,144.63s8.82-12.89,8.34-13.89-8.34,11.8-13.2,15.28-14.59,9.37-17,9.37-2.6-2.95-1.74-8.68,1.07-7.29,5.05-12.5,15.41-19.31,14.75-20-15.15,17.84-18.75,20.14-6.62-12.85-7.82-12.85,3.45,10.81,3.74,15.84-.27,11.08-2.52,12.64-8.42-3.3-12.42-7.64-4.08-23.09-5.64-23.09,1,17.21,1,18.87c0,3.62-15.26-6.29-18-5.85s14,6.44,20.66,12.85c5.76,5.58,6.75,7.34,8.71,11.48,2.09,4.39,2.69,10.05,2.69,26.2s-4.35,42-4.35,52c0,1.33.88,2.66,2.63,3.67a14.09,14.09,0,0,0,12.71,0c1.75-1,2.63-2.34,2.63-3.67h0c0-10-4.35-35.88-4.35-52s.65-22.18,5.45-25.59,13-9.44,16.6-10.53,14.07.7,14.07,0S114.11,144.63,114.11,144.63Z" style="opacity: 0.4; transform-origin: 88.4749px 177.088px;" class="animable"></path></g></g></g><g id="freepik--Floor--inject-66" class="animable" style="transform-origin: 250.48px 339.83px;"><g id="freepik--floor--inject-66" class="animable" style="transform-origin: 250.48px 339.83px;"><g id="freepik--floor--inject-66" class="animable" style="transform-origin: 250.48px 339.83px;"><ellipse id="freepik--Grass--inject-66" cx="250.48" cy="339.83" rx="244.73" ry="149.77" style="fill: rgb(0, 255, 136); transform-origin: 250.48px 339.83px;" class="animable"></ellipse><g id="freepik--grass--inject-66"><ellipse cx="250.48" cy="339.83" rx="244.73" ry="149.77" style="fill: rgb(255, 255, 255); opacity: 0.5; transform-origin: 250.48px 339.83px;" class="animable"></ellipse></g></g><g id="freepik--Flowers--inject-66" class="animable" style="transform-origin: 243.681px 372.491px;"><g id="freepik--flowers--inject-66" class="animable" style="transform-origin: 402.259px 296.001px;"><path d="M402.56,293.81s-.2-2.85-2.43-3.15c0,0-1.83-.3-2.85,2.54a5.84,5.84,0,0,0-5.28.61,3.29,3.29,0,0,0,2.44,3.65s-1.73,1.32-.91,4.47c0,0,4.56,1.52,5.68-1.32,0,0,.41,2.54,4.87,2.54a4.26,4.26,0,0,0,0-5.08s3.15-.1,3.66-2.43C407.74,295.64,405.61,292.08,402.56,293.81Z" style="fill: rgb(250, 250, 250); transform-origin: 399.854px 296.9px;" id="elbadc5ps6n4j" class="animable"></path><path d="M399.81,294.26a3.1,3.1,0,0,0-3.37,2.09s0,1.66,2.85,1.9,3.28-1.42,3.28-1.42A2.8,2.8,0,0,0,399.81,294.26Z" style="fill: rgb(240, 153, 122); transform-origin: 399.505px 296.252px;" id="elnf6urxk9tsl" class="animable"></path><path d="M422.82,287.82s-1-2-2.64-2.26a4.56,4.56,0,0,0-1.63,2.91,4.16,4.16,0,0,0-3.59.88,3.86,3.86,0,0,0,2.28,2.64,5.08,5.08,0,0,0,.12,3.74s3.16.24,4.27-2.4c0,0,1.17,1.75,4.39,1.14a3.28,3.28,0,0,0-1.17-3.83s2-1.15,1.76-3.06A5,5,0,0,0,422.82,287.82Z" style="fill: rgb(250, 250, 250); transform-origin: 420.795px 290.648px;" id="elf6fg94zzjpu" class="animable"></path><path d="M421,289a2.31,2.31,0,0,0-2.24,1.91s.19,1.21,2.3,1.08,2.24-1.41,2.24-1.41A2.07,2.07,0,0,0,421,289Z" style="fill: rgb(240, 153, 122); transform-origin: 421.03px 290.49px;" id="el9krxvjx2oh9" class="animable"></path><path d="M397.71,279.3s-.62-1.81-1.81-1.19-.78,1.76.26,2c0,0-2.22.72-1.6,1.91s2.53-.05,2.94-.67c0,0,.41,1.81,2,1.16s0-2.2,0-2.2,2.38-.93,1.09-2S397.71,279.3,397.71,279.3Z" style="fill: rgb(250, 250, 250); transform-origin: 397.712px 280.316px;" id="elmqmo4il41u" class="animable"></path><path d="M417.67,310.35s.18-1.91-1.15-1.83-1.44,1.28-.6,1.94c0,0-2.32-.26-2.25,1.08s2.33,1,3,.6c0,0-.38,1.83,1.3,1.88s.91-2,.91-2,2.55.14,1.82-1.38S417.67,310.35,417.67,310.35Z" style="fill: rgb(250, 250, 250); transform-origin: 417.25px 311.269px;" id="elw5ziv2fp0k" class="animable"></path><path d="M379.16,303.57s-1.54-2-.37-2.52,1.66,1.26,1.66,1.26,1.17-1.38,1.72-.4-.86,2-.86,2,1.6.86.68,1.72-2-.49-2-.49-.63,1.53-1.61,1.1S378,304.06,379.16,303.57Z" style="fill: rgb(250, 250, 250); transform-origin: 380.093px 303.636px;" id="elliem57e7jx" class="animable"></path></g><g id="freepik--flowers--inject-66" class="animable" style="transform-origin: 409.357px 375.408px;"><path d="M404.43,379.37s-.88-2.49-2.95-2.22c0,0-1.71.18-1.92,3A5.42,5.42,0,0,0,395,382a3.05,3.05,0,0,0,3.08,2.68s-1.22,1.6.27,4.22c0,0,4.46.24,4.76-2.57,0,0,1,2.17,5,1.08a4,4,0,0,0-1.24-4.55s2.79-.86,2.68-3.07C409.51,379.74,406.73,377.08,404.43,379.37Z" style="fill: rgb(250, 250, 250); transform-origin: 402.277px 383.017px;" id="el8r07i6ajzp" class="animable"></path><path d="M402.08,380.45a2.89,2.89,0,0,0-2.51,2.69s.41,1.48,3,1,2.58-2.08,2.58-2.08A2.59,2.59,0,0,0,402.08,380.45Z" style="fill: rgb(240, 153, 122); transform-origin: 402.36px 382.303px;" id="ely1x6fiazuw" class="animable"></path><path d="M425.59,364s-.93-1.87-2.45-2.09a4.21,4.21,0,0,0-1.51,2.7,3.83,3.83,0,0,0-3.33.81,3.58,3.58,0,0,0,2.12,2.45,4.68,4.68,0,0,0,.11,3.47s2.93.22,4-2.23c0,0,1.08,1.63,4.07,1.06a3,3,0,0,0-1.09-3.55s1.85-1.07,1.63-2.84A4.6,4.6,0,0,0,425.59,364Z" style="fill: rgb(250, 250, 250); transform-origin: 423.729px 366.628px;" id="eljzlqptk38t" class="animable"></path><path d="M423.92,365.07a2.14,2.14,0,0,0-2.08,1.77s.18,1.12,2.14,1,2.08-1.3,2.08-1.3A1.92,1.92,0,0,0,423.92,365.07Z" style="fill: rgb(240, 153, 122); transform-origin: 423.95px 366.45px;" id="elk1z4x7da9a" class="animable"></path><path d="M405.76,365.5s-.58-1.68-1.68-1.1-.72,1.63.24,1.87c0,0-2.06.67-1.48,1.77s2.34-.05,2.73-.63c0,0,.38,1.69,1.82,1.09s0-2.05,0-2.05,2.2-.86,1-1.86S405.76,365.5,405.76,365.5Z" style="fill: rgb(250, 250, 250); transform-origin: 405.743px 366.454px;" id="el2z3ikbp3aek" class="animable"></path><path d="M436.14,377s.17-1.76-1.07-1.69-1.33,1.18-.56,1.8c0,0-2.15-.24-2.08,1s2.15.92,2.74.56c0,0-.35,1.69,1.21,1.73s.85-1.86.85-1.86,2.36.13,1.68-1.28S436.14,377,436.14,377Z" style="fill: rgb(250, 250, 250); transform-origin: 435.731px 377.854px;" id="elek8op18r0aq" class="animable"></path><path d="M382.23,378.3s2-1.31,2.35-.21-1.25,1.47-1.25,1.47,1.22,1.15.28,1.62-1.83-.91-1.83-.91-.88,1.44-1.63.54.56-1.85.56-1.85-1.39-.66-.94-1.54S381.83,377.2,382.23,378.3Z" style="fill: rgb(250, 250, 250); transform-origin: 382.155px 379.145px;" id="elv6spk8dadb" class="animable"></path></g><g id="freepik--flowers--inject-66" class="animable" style="transform-origin: 196.836px 449.126px;"><path d="M194.17,456.81s.22-3,2.58-3.32c0,0,1.93-.32,3,2.68,0,0,2.36-1.18,5.58.64a3.48,3.48,0,0,1-2.58,3.86s1.83,1.4,1,4.72c0,0-4.83,1.61-6-1.39,0,0-.43,2.68-5.15,2.68a4.5,4.5,0,0,1,0-5.36s-3.32-.11-3.86-2.58C188.7,458.74,191,455,194.17,456.81Z" style="fill: rgb(250, 250, 250); transform-origin: 197.052px 460.08px;" id="el8bdnpndax9m" class="animable"></path><path d="M197.08,457.29a3.29,3.29,0,0,1,3.56,2.21s0,1.75-3,2-3.46-1.51-3.46-1.51A2.94,2.94,0,0,1,197.08,457.29Z" style="fill: rgb(240, 153, 122); transform-origin: 197.41px 459.392px;" id="elyke1z4l0pol" class="animable"></path><path d="M167.62,442.82s1.06-2.14,2.79-2.38a4.76,4.76,0,0,1,1.72,3.07,4.39,4.39,0,0,1,3.79.93,4,4,0,0,1-2.41,2.78,5.42,5.42,0,0,1-.12,4s-3.34.25-4.52-2.54c0,0-1.23,1.85-4.63,1.21a3.48,3.48,0,0,1,1.23-4.05s-2.1-1.21-1.85-3.23A5.19,5.19,0,0,1,167.62,442.82Z" style="fill: rgb(250, 250, 250); transform-origin: 169.76px 445.833px;" id="elpqsp0r4575" class="animable"></path><path d="M169.52,444.08a2.46,2.46,0,0,1,2.37,2s-.2,1.29-2.43,1.14-2.37-1.49-2.37-1.49A2.18,2.18,0,0,1,169.52,444.08Z" style="fill: rgb(240, 153, 122); transform-origin: 169.49px 445.645px;" id="ellyra4aon1d" class="animable"></path><path d="M191.53,432.64s.66-1.91,1.91-1.25.82,1.85-.27,2.13c0,0,2.35.76,1.69,2s-2.67-.06-3.11-.71c0,0-.43,1.92-2.07,1.23s0-2.33,0-2.33-2.51-1-1.15-2.12S191.53,432.64,191.53,432.64Z" style="fill: rgb(250, 250, 250); transform-origin: 191.551px 433.721px;" id="eljv7vlumwxso" class="animable"></path><path d="M225.85,463.15s-.19-2,1.22-1.93,1.51,1.35.63,2c0,0,2.45-.28,2.37,1.14s-2.45,1-3.12.64c0,0,.4,1.93-1.38,2s-1-2.12-1-2.12-2.69.14-1.92-1.46S225.85,463.15,225.85,463.15Z" style="fill: rgb(250, 250, 250); transform-origin: 226.292px 464.11px;" id="elo94d7p6a7g" class="animable"></path><path d="M219.16,446.83s1.63-2.15.39-2.67-1.75,1.33-1.75,1.33-1.23-1.46-1.81-.42.9,2.14.9,2.14-1.68.91-.71,1.82,2.14-.52,2.14-.52.67,1.62,1.7,1.17S220.4,447.34,219.16,446.83Z" style="fill: rgb(250, 250, 250); transform-origin: 218.193px 446.913px;" id="el10j4ff781brl" class="animable"></path></g><g id="freepik--flowers--inject-66" class="animable" style="transform-origin: 94.671px 387.195px;"><path d="M94.38,385.5s-.21-3-2.55-3.29c0,0-1.91-.32-3,2.65,0,0-2.33-1.17-5.52.64a3.44,3.44,0,0,0,2.55,3.82s-1.8,1.38-1,4.66c0,0,4.77,1.6,5.94-1.37,0,0,.42,2.65,5.09,2.65A4.45,4.45,0,0,0,96,390s3.29-.1,3.82-2.54C99.79,387.41,97.56,383.69,94.38,385.5Z" style="fill: rgb(250, 250, 250); transform-origin: 91.5476px 388.73px;" id="elzf6sn4ui9k" class="animable"></path><path d="M91.51,386A3.27,3.27,0,0,0,88,388.15s0,1.74,3,2,3.43-1.49,3.43-1.49A2.92,2.92,0,0,0,91.51,386Z" style="fill: rgb(240, 153, 122); transform-origin: 91.215px 388.074px;" id="elfjsarp9t6r" class="animable"></path><path d="M117.92,381.9s-1-2.11-2.76-2.36a4.73,4.73,0,0,0-1.7,3,4.32,4.32,0,0,0-3.75.92,4,4,0,0,0,2.38,2.75,5.34,5.34,0,0,0,.13,3.92s3.3.24,4.46-2.51c0,0,1.22,1.83,4.59,1.19a3.45,3.45,0,0,0-1.23-4s2.08-1.2,1.84-3.2A5.15,5.15,0,0,0,117.92,381.9Z" style="fill: rgb(250, 250, 250); transform-origin: 115.805px 384.838px;" id="el9bkg9zqwdyb" class="animable"></path><path d="M116,383.14a2.42,2.42,0,0,0-2.34,2s.19,1.27,2.4,1.12,2.35-1.47,2.35-1.47A2.18,2.18,0,0,0,116,383.14Z" style="fill: rgb(240, 153, 122); transform-origin: 116.035px 384.696px;" id="elpssgczrcknc" class="animable"></path><path d="M96.71,374.29s-.64-1.88-1.88-1.24-.81,1.84.27,2.11c0,0-2.33.75-1.68,2s2.65,0,3.08-.7c0,0,.43,1.9,2,1.22s0-2.3,0-2.3,2.48-1,1.13-2.1S96.71,374.29,96.71,374.29Z" style="fill: rgb(250, 250, 250); transform-origin: 96.6689px 375.372px;" id="elk1p6mih5als" class="animable"></path><path d="M112.66,397.62s.19-2-1.21-1.91-1.49,1.34-.62,2c0,0-2.43-.27-2.35,1.13s2.43,1,3.09.63c0,0-.39,1.91,1.36,2s1-2.1,1-2.1,2.66.14,1.89-1.45S112.66,397.62,112.66,397.62Z" style="fill: rgb(250, 250, 250); transform-origin: 112.219px 398.59px;" id="elj12rcf2dfze" class="animable"></path><path d="M68.79,381.05s-1.6-2.12-.38-2.63,1.73,1.31,1.73,1.31,1.22-1.44,1.8-.41-.9,2.12-.9,2.12,1.67.89.7,1.79-2.11-.51-2.11-.51-.66,1.6-1.68,1.15S67.57,381.56,68.79,381.05Z" style="fill: rgb(250, 250, 250); transform-origin: 69.7587px 381.14px;" id="elhkmo82xidsn" class="animable"></path></g><g id="freepik--flowers--inject-66" class="animable" style="transform-origin: 71.9548px 301.637px;"><path d="M72.2,300.16s.19-2.58,2.21-2.85c0,0,1.66-.28,2.58,2.3a5.33,5.33,0,0,1,4.79.55,3,3,0,0,1-2.21,3.32s1.56,1.19.83,4c0,0-4.14,1.38-5.16-1.2,0,0-.37,2.3-4.42,2.3a3.85,3.85,0,0,1,0-4.6s-2.85-.09-3.31-2.21C67.51,301.82,69.44,298.6,72.2,300.16Z" style="fill: rgb(250, 250, 250); transform-origin: 74.6596px 302.941px;" id="eld1uoq6q0t05" class="animable"></path><path d="M74.7,300.57a2.82,2.82,0,0,1,3.06,1.9s0,1.5-2.59,1.72-3-1.29-3-1.29A2.53,2.53,0,0,1,74.7,300.57Z" style="fill: rgb(240, 153, 122); transform-origin: 74.965px 302.378px;" id="elg51z7jbm7r9" class="animable"></path><path d="M51.78,297s.91-1.83,2.39-2.05a4.09,4.09,0,0,1,1.48,2.64,3.75,3.75,0,0,1,3.25.8,3.47,3.47,0,0,1-2.07,2.39,4.62,4.62,0,0,1-.1,3.39s-2.87.21-3.87-2.17c0,0-1.07,1.58-4,1a3,3,0,0,1,1.06-3.47,3.13,3.13,0,0,1-1.59-2.78A4.45,4.45,0,0,1,51.78,297Z" style="fill: rgb(250, 250, 250); transform-origin: 53.6148px 299.562px;" id="elly7dlqzkrkf" class="animable"></path><path d="M53.41,298.12a2.09,2.09,0,0,1,2,1.73s-.17,1.1-2.08,1-2-1.27-2-1.27A1.88,1.88,0,0,1,53.41,298.12Z" style="fill: rgb(240, 153, 122); transform-origin: 53.37px 299.48px;" id="el7ie17hqu0z5" class="animable"></path><path d="M70.18,290.44s.56-1.64,1.64-1.08.7,1.6-.24,1.83c0,0,2,.66,1.46,1.73s-2.3,0-2.67-.61c0,0-.38,1.65-1.78,1.06s0-2,0-2-2.16-.84-1-1.82S70.18,290.44,70.18,290.44Z" style="fill: rgb(250, 250, 250); transform-origin: 70.1901px 291.37px;" id="elbmmib9t8xlp" class="animable"></path><path d="M56.34,310.68s-.16-1.72,1-1.66,1.3,1.16.54,1.76c0,0,2.11-.23,2,1s-2.11.91-2.68.55c0,0,.34,1.65-1.18,1.7s-.83-1.82-.83-1.82-2.31.12-1.65-1.26S56.34,310.68,56.34,310.68Z" style="fill: rgb(250, 250, 250); transform-origin: 56.6528px 311.525px;" id="el11mgo6dsu02n" class="animable"></path><path d="M94.41,296.3s1.39-1.84.33-2.28-1.5,1.14-1.5,1.14-1.06-1.25-1.56-.36.78,1.84.78,1.84-1.45.78-.62,1.56,1.84-.45,1.84-.45.57,1.39,1.46,1S95.46,296.75,94.41,296.3Z" style="fill: rgb(250, 250, 250); transform-origin: 93.5721px 296.381px;" id="elrg37forwjb" class="animable"></path></g></g></g></g><g id="freepik--Clouds--inject-66" class="animable" style="transform-origin: 271.782px 62.4164px;"><path id="freepik--Cloud--inject-66" d="M285,60.88a10.74,10.74,0,0,0-3.54-.65c-1.14-.09-1.5-.32-1.72-.56a8.43,8.43,0,0,0-10.13-3A6.46,6.46,0,0,0,262,52.36c.13-3.56-4.42-7.39-8.5-8.26-3.92-.83-7.33-.48-9.57,2.09-2.39-4.67-11.77-6-16.84-3.51-2.92,1.42-5.4,2.88-6.61,5.55a11.21,11.21,0,0,0-1.1,5.32c-2-1.75-5.93-2.22-8.58-1.2-2.84,1.11-3.06,3.25-3.2,5.44a10,10,0,0,0-5.18-.1c-1.8.53-2.83,1.94-2.59,3.08-1.42-.08-4.8,1.07-4.41,2.57.44,1.68,4.3,1.51,5.74,1.46a27.68,27.68,0,0,0,4-.64,5.94,5.94,0,0,0,2.1.4c2.46,0,3.5-1.07,3.9-2,1.2,2.52,5.47,4.45,8.49,5.22,5.68,1.46,13.73.57,17.23-3.68a6.34,6.34,0,0,0,1.69,2.06,9.75,9.75,0,0,0,5.26,2.13c2.34.22,8.61.52,10.37-3.19,1.25,2.47,6.83,3.59,11.07,3A17.45,17.45,0,0,0,270,66.68,28.76,28.76,0,0,0,272.78,65a2.25,2.25,0,0,1,2.32-.16c2.92.88,6.29,1.24,9.27,0C286.74,63.88,287.23,61.89,285,60.88Z" style="fill: rgb(240, 240, 240); transform-origin: 240.912px 54.9391px;" class="animable"></path><path id="freepik--cloud--inject-66" d="M347.23,78.37a6.89,6.89,0,0,0-2.34-.43c-.76-.06-1-.21-1.15-.38a5.59,5.59,0,0,0-6.7-2A4.29,4.29,0,0,0,332,72.72c.09-2.35-2.92-4.88-5.63-5.46s-4.85-.32-6.33,1.39c-1.58-3.1-7.79-4-11.15-2.33-1.93.94-3.57,1.9-4.37,3.67a7.38,7.38,0,0,0-.73,3.52,6.23,6.23,0,0,0-5.68-.79c-1.88.73-2,2.15-2.12,3.6a6.44,6.44,0,0,0-3.43-.06c-1.19.35-1.87,1.28-1.71,2-.94-.06-3.18.7-2.92,1.69s2.84,1,3.8,1a17.75,17.75,0,0,0,2.67-.42,4.18,4.18,0,0,0,1.39.27c1.63,0,2.32-.71,2.58-1.32.8,1.67,3.62,3,5.62,3.46,3.77,1,9.09.38,11.41-2.44a4.15,4.15,0,0,0,1.12,1.37A6.46,6.46,0,0,0,320,83.29c1.55.14,5.7.34,6.87-2.12.83,1.64,4.52,2.38,7.33,2a11.34,11.34,0,0,0,3.14-1,18.41,18.41,0,0,0,1.81-1.08,1.49,1.49,0,0,1,1.54-.1,9.21,9.21,0,0,0,6.13,0C348.37,80.35,348.7,79,347.23,78.37Z" style="fill: rgb(245, 245, 245); transform-origin: 318.042px 74.4401px;" class="animable"></path></g><g id="freepik--Sun--inject-66" class="animable" style="transform-origin: 433.48px 64.52px;"><circle id="freepik--sun--inject-66" cx="433.48" cy="64.52" r="19.47" style="fill: rgb(255, 189, 167); transform-origin: 433.48px 64.52px;" class="animable"></circle></g><g id="freepik--Shadow--inject-66" class="animable" style="transform-origin: 241.3px 351.948px;"><g id="freepik--shadow--inject-66"><path d="M188.7,410.42c48.48,29.49,84.78,39.34,131,30.61,16-3,40.51-14.74,49.37-30.56a20.42,20.42,0,0,0-1-21.19c-15.57-23.59-63.85-46.41-84.34-60.37C260,314.08,232.44,302.45,204,308c-45.71,4.82-21.37-28.56,9.42-25.15-13.56-13.91-34.79-18.33-54-15.16a23.46,23.46,0,0,1,8.86-7.86C149.42,259.1,132.09,273,125.16,290a15.82,15.82,0,0,1-2.35-10.28c-17.55,15.86-15.08,46.47,4.77,59.32a27.32,27.32,0,0,1-8.71-4.28c1.83,9.92,12.21,16.73,22.7,21.83,6.34,3.08,8.24,7.92,13.23,19C158,382.7,161.32,393.76,188.7,410.42Z" style="fill: rgb(0, 255, 136); opacity: 0.4; transform-origin: 241.3px 351.948px;" class="animable"></path></g></g><g id="freepik--Dog--inject-66" class="animable" style="transform-origin: 266.37px 271.418px;"><g id="freepik--dog--inject-66" class="animable" style="transform-origin: 266.37px 271.418px;"><g id="freepik--dog--inject-66" class="animable" style="transform-origin: 265.727px 271.418px;"><path d="M203.36,298.43c-5.88,39.41,15.82,50.12,27.33,56.67s39.78,18,49.45,19.64,10.39-.67,10.69-1.94c5.79,1.59,9-1.56,9.06-3.29,4.45,0,5.53-3.61,4.87-7.12s-3.22-7.22-6.64-8.28c-5.23-1.62-8.51-.52-19-2.3a67.84,67.84,0,0,1-10-2.3c10,1.25,24-3.87,32.05-9.33a29.35,29.35,0,0,1-4.36,6s9.87-3.28,12.77-11.12a23.63,23.63,0,0,1-.73,6.75s8-7.86,4.72-22.78c-2.32-10.62-9.13-14.35-9.13-14.35Z" style="fill: rgb(177, 102, 104); transform-origin: 258.364px 336.869px;" id="el6t1gdfqyoi3" class="animable"></path><path d="M269.15,349.51a102,102,0,0,1-27.74-7.37C255,353.4,274.43,357,289.8,353h0a87.48,87.48,0,0,1-10.65-1.16A67.84,67.84,0,0,1,269.15,349.51Z" style="fill: rgb(154, 74, 77); transform-origin: 265.605px 348.359px;" id="elfy35gmg9llv" class="animable"></path><path d="M299.89,369.51c.69-4.08.43-9-3.44-10.65s-10.95-1.29-10.95-1.29,9.41-1.42,12.89.77S301,366.38,299.89,369.51Z" style="fill: rgb(177, 102, 104); transform-origin: 293.185px 363.314px;" id="el5ms7hvjwllu" class="animable"></path><path d="M290.83,372.77c.68-4.08.43-9-3.44-10.65s-10.95-1.29-10.95-1.29,9.41-1.42,12.88.77S292,369.64,290.83,372.77Z" style="fill: rgb(177, 102, 104); transform-origin: 284.133px 366.574px;" id="elx78bn83tw1" class="animable"></path><path d="M267.19,314.35c8.11-3.58,21.13-7.35,52.25-12.08l-14.28-107.2-10.93-1.52c-16.63,12.55-26,8.69-65.93,32.46-32.05,19.06-72,38-75.54,89.37-2.71,39.76,15.82,50.12,27.33,56.67s39.79,18,49.45,19.65,10.39-.67,10.69-1.94c5.79,1.58,9-1.57,9.07-3.29,4.44,0,5.52-3.61,4.86-7.13s-3.22-7.21-6.64-8.28c-5.23-1.62-8.5-.52-19-2.3a67.82,67.82,0,0,1-10-2.3c10,1.26,24-3.87,32.06-9.32a29.64,29.64,0,0,1-4.37,6s9.87-3.28,12.77-11.11a23.59,23.59,0,0,1-.73,6.74s8-7.85,4.73-22.78c-2.33-10.62-9.13-14.35-9.13-14.35A81.81,81.81,0,0,1,267.19,314.35Z" style="fill: rgb(240, 153, 122); transform-origin: 235.966px 292.911px;" id="el4hztd45v39" class="animable"></path><path d="M218.55,366.46a102,102,0,0,1-27.74-7.36c13.55,11.26,33,14.81,48.39,10.83h0a87.58,87.58,0,0,1-10.64-1.17A67.82,67.82,0,0,1,218.55,366.46Z" style="fill: rgb(177, 102, 104); transform-origin: 215.005px 365.302px;" id="eliblin3eyy1" class="animable"></path><path d="M249.3,386.47c.68-4.09.42-9-3.44-10.66s-11-1.29-11-1.29,9.41-1.41,12.89.78S250.42,383.33,249.3,386.47Z" style="fill: rgb(177, 102, 104); transform-origin: 242.561px 380.272px;" id="elwao67c0hgsf" class="animable"></path><path d="M240.24,389.73c.68-4.09.42-9-3.45-10.66s-10.95-1.29-10.95-1.29,9.41-1.41,12.89.78S241.36,386.59,240.24,389.73Z" style="fill: rgb(177, 102, 104); transform-origin: 233.53px 383.532px;" id="el3ad9idi75ph" class="animable"></path><path d="M311.63,243.64A131.72,131.72,0,0,1,295.15,268c-10,11.48-24.74,18.57-46,26.2-19.27,6.91-39.64,6.36-49.87,17.93,25-4.82,40.81.9,54.59,9.56a81.81,81.81,0,0,1,13.31-7.31c8.11-3.58,21.13-7.35,52.25-12.08Z" style="fill: rgb(255, 189, 167); transform-origin: 259.355px 282.665px;" id="el5yefd4uhpmh" class="animable"></path><path d="M354.8,277.22c-.75,13.39-16.39,53.1-20.09,65.06-3.25,10.51-3.74,16-3.24,18.94a78.46,78.46,0,0,0,4.68,16.25,31.57,31.57,0,0,0,8.91,12.44c7.61,5.87,11.74,6.52,11.72,11.31-.14.77-.79,4.4-4.19,4.32-1,3.42-5.65,2.9-5.65,2.9s-2,5.64-14.95.31c-5.15-2.13-7.58-8.27-10-14-1.78-4.25-2.41-11.15-5.38-20.42A86.61,86.61,0,0,0,312,362.27s-2.08-.37-2.91,2.83c-1-2.07-.86-6,0-8.49s1.78-9.62,1-16.76-5-25.17-5-25.17c-2.16,10.29-3.31,23.68-4,37.29s-6.44,23.41-5.34,30.75,3.44,19.7,10.71,27.61c6.84,7.44,12.77,6.43,12.17,14.62-.15.77-1.06,3.94-4.46,3.87-1.05,3.42-5.65,2.9-5.65,2.9s-1.52,4.32-15,.3c-7.1-2.12-8.55-10.94-10-15.31A171.37,171.37,0,0,0,276.11,398a35.5,35.5,0,0,1-3.35-12.94c-1.79-.92-5.37,1.16-5.37,1.16s-.21-4.63,3.67-6.87c-5.28-2.68-3.31-7.34-3.31-7.34s2.86,3.58,5.37,0,1.43-17.55-.72-38.48-3.88-29.27-7.37-40.35c-9.29-29.51,18.55-103.3,38.49-102.59C326.49,191.7,360.35,232.79,354.8,277.22Z" style="fill: rgb(240, 153, 122); transform-origin: 309.983px 312.158px;" id="eladed3kp68fn" class="animable"></path><path d="M308.48,431.72c.64-1.78,1.18-4.7-1.39-5.89s-5.55-2.77-5.55-2.77,5.74,1.78,7,2.62S310.32,429,308.48,431.72Z" style="fill: rgb(177, 102, 104); transform-origin: 305.609px 427.39px;" id="el74c45ol1qqo" class="animable"></path><path d="M314.13,428.82c.63-1.78,1.18-4.7-1.4-5.89s-5.54-2.77-5.54-2.77,5.74,1.78,7,2.63S316,426.1,314.13,428.82Z" style="fill: rgb(177, 102, 104); transform-origin: 311.265px 424.49px;" id="elk7mwebd2ie" class="animable"></path><path d="M346.94,408.44c.64-1.78,1.18-4.7-1.39-5.89s-5.54-2.77-5.54-2.77,5.74,1.78,7,2.62S348.78,405.71,346.94,408.44Z" style="fill: rgb(177, 102, 104); transform-origin: 344.077px 404.11px;" id="elq8634hlg4v8" class="animable"></path><path d="M352.59,405.54c.64-1.77,1.18-4.69-1.39-5.88s-5.55-2.77-5.55-2.77,5.75,1.78,7,2.62S354.43,402.82,352.59,405.54Z" style="fill: rgb(177, 102, 104); transform-origin: 349.718px 401.215px;" id="elq91awcc99t" class="animable"></path><path d="M309.63,178.12c1.74-7.31,1.37-15.83-.42-34s-4.26-33.32-2.29-34.5,11-.87,14.95,6.75,9.21,16.79,12.66,23.16c3.24,6,5.34,8.23,8.33,8.55Z" style="fill: rgb(55, 71, 79); transform-origin: 324.527px 143.612px;" id="elojcukb1fjh" class="animable"></path><path d="M315.29,156.57c0,2.14,4-2,8.45-5.33s7.89-3,7.28-7.06c-1.29-8.66-12.51-29.13-16.63-30.29s-3.64,3-2.42,12S315.25,152.62,315.29,156.57Z" style="fill: rgb(240, 153, 122); transform-origin: 321.099px 135.429px;" id="el0g7nptlt53wt" class="animable"></path><path d="M378,157.69s1.88-14.73.58-27.3-3-17.77-6.57-19.45-4,1-5.2,7.38-5.7,13.25-8.05,18.61-3.85,8.5-4,10.46Z" style="fill: rgb(55, 71, 79); transform-origin: 366.899px 134.07px;" id="elhpksj0p7rbq" class="animable"></path><path d="M376.59,153.53c-3.17-3.43-9.9-6.6-12.28-7.79s-.66-3.17,2.9-10.82,3.7-17.56,5.42-17.69,3.4.65,4.22,11.62A166.15,166.15,0,0,1,376.59,153.53Z" style="fill: rgb(240, 153, 122); transform-origin: 370.199px 135.374px;" id="elgvukbcvchua" class="animable"></path><path d="M410.87,186.31c-12.32-5.65-22.28-10.22-25.48-12.42s-3.85-9.36-7.38-16.2-13.78-10.84-27.57-10.28-27.25,4.65-35.9,19.92-11,23.28-11,23.28,3,12.28,19.35,22.49,30.46,2.56,39.43,2.7,27.32,2,34.82-1.35,13.34-10.92,16.22-15.89S416.43,188.86,410.87,186.31Z" style="fill: rgb(240, 153, 122); transform-origin: 359.44px 182.889px;" id="elt1vcc5q7qlr" class="animable"></path><path d="M345,165.84a9.49,9.49,0,0,0-1.48,4.38,2.36,2.36,0,0,0,.82,2.28c.8.45,1.5-.25,2-.83a12.17,12.17,0,0,1,4.59-3.43c1.09-.4,2.9-.63,3.57-1.72.89-1.45-.56-2.81-1.82-3.24a7,7,0,0,0-5.51.53A5.8,5.8,0,0,0,345,165.84Z" style="fill: rgb(55, 71, 79); transform-origin: 349.125px 167.794px;" id="el3v0fqf4eoja" class="animable"></path><path d="M358.14,175.56c.69,2.49-1.33,3-3.82,3.71s-4.5,1.25-5.18-1.24a4.67,4.67,0,1,1,9-2.47Z" style="fill: rgb(38, 50, 56); transform-origin: 353.599px 175.906px;" id="elzhmmz8qnhy" class="animable"></path><path d="M354,173a2.88,2.88,0,0,0-.59.06.93.93,0,0,0-.42.18.39.39,0,0,0-.14.41.52.52,0,0,0,.17.22c.43.41.93.71,1.36,1.13a5.38,5.38,0,0,1,1.06,1.41,1.8,1.8,0,0,0,.43.67c.77.6,1.34-.72,1.34-1.27a2.92,2.92,0,0,0-1.61-2.42A3.27,3.27,0,0,0,354,173Z" style="fill: rgb(69, 90, 100); transform-origin: 355.023px 175.116px;" id="el4nt1fxhlfq" class="animable"></path><path d="M317.88,232.29c-.28,1.1-.61,2.18-1,3.27a76.22,76.22,0,0,1-5.57,13.05c-1.73,3.22-3.7,6.31-5.23,9.63a23.21,23.21,0,0,0-2.48,10.56,18.31,18.31,0,0,1,6.31-4.79,19.26,19.26,0,0,0-6,15.5,20.45,20.45,0,0,1,5.73-5.66c-.89.58-1.28,4.18-1.47,5.19a28.74,28.74,0,0,0-.48,5.63c0,3.05.16,6.12.12,9.21-.1,7.06-.66,14-2.75,20.8,0,0,7.5-1.45,8.78-1.72,5.83-1.24,10.74-4,14.9-6.19,8-4.29,12.51-7.93,17.52-15.54,8.54-13,8.63-30.86,1.43-44.31-6.09-11.37-15.23-22-27.61-25.62a.7.7,0,0,0-1,.72c-.3,2.34-.41,4.7-.61,7A21.38,21.38,0,0,1,317.88,232.29Z" style="fill: rgb(255, 189, 167); transform-origin: 328.245px 267.955px;" id="ellp8flvuowzr" class="animable"></path><path d="M310.36,175c-1.87,3.74-10.49,3.93-13.64,13.45,0,0,4.73-3.31,7.94-1.42l-1.11,3.57a13.57,13.57,0,0,0-13.79,9.06c4.41-4.41,7.71-4.61,8.26,1.68s-3,18.41,3.58,30.24a14.44,14.44,0,0,1,1.92-10.45,38.32,38.32,0,0,0,7.86,21.34c7.84,10,15.54,12.39,15.54,12.39s-7.15-9.51-8-13.64c8.53,9.36,16.79,12.66,23.12,21.47s5.78,17.06,5.78,17.06,15.41-11.3,10.73-26c5,5.1,4.64,7.52,4.64,7.52s4.72-9,1.69-17.15-7-24.38,2-28.18Z" style="fill: rgb(240, 153, 122); transform-origin: 328.32px 227.375px;" id="elao2ddyvwrx" class="animable"></path><path d="M289.76,199.69c2.6-2.75,6.94-5.61,8.12,0,.69,3.06.12,7.71,0,10.87a49.76,49.76,0,0,0,.5,10.78,31.56,31.56,0,0,0,3.54,10.11l-.68.24a16.68,16.68,0,0,1,0-5.55,14.44,14.44,0,0,1,2.69-6.3l.06,1.32c.66,14.11,10.11,27.78,23.12,33.25l-.56.8A85.12,85.12,0,0,1,320,245.14a18.34,18.34,0,0,1-1.94-5.57l1.24,1.35c5.52,6.28,12.71,10.65,18.71,16.45s10.24,13.92,10.12,22.43l-.46-.25c7.67-5.92,14-15.84,10.9-25.79,3.37,10.18-3.09,20.56-11,26.62v-.62c0-8.28-4.26-16.12-10.14-21.77s-13.27-10.15-18.83-16.42l.83-.42c1.77,5.48,5.65,10.18,9,14.82C314.22,251,303.64,236,303.09,221.16l.77.25a13.27,13.27,0,0,0-1.88,4.86,20.75,20.75,0,0,0,.27,7.28,33.74,33.74,0,0,1-4.46-12.12,47.93,47.93,0,0,1-.36-10.9c.21-3.1.84-7.76.23-10.81-1-5.44-5.33-2.64-7.9,0Z" style="fill: rgb(177, 102, 104); transform-origin: 324.622px 238.424px;" id="el9zru7i918a" class="animable"></path><path d="M383.86,172.23c-3.53-4.76-10.74-15.07-16.1-15.07-5.54,0-1.61,12.38-1.33,17.87s-6.73,11-10.19,17.76c-3.35,6.51-.68,17.62,6.3,23,9,.17,27.15,1.94,34.58-1.35s13.34-10.92,16.22-15.89,3.09-9.7-2.47-12.25c-11.74-5.39-21.32-9.79-25-12.09a3.06,3.06,0,0,1-.52-.33A5.7,5.7,0,0,1,383.86,172.23Z" style="fill: rgb(55, 71, 79); transform-origin: 385.065px 186.789px;" id="elhc34qltz29l" class="animable"></path><path d="M404.21,185.81c-5,1.21-7,3.47-7.19,6.31s1.24,4.17,3.21,5.68,4.81,1.67,4,.5-.17-4,1.33-3.68.17,2.17,0,3.51,1.34,2.84,3,3.18,2.44-.6,4-2.59-1.69-5,1.34-4.82c.45,0,.48,2,.89,1.55.95-1.16,1.78-5.65-.8-7.65C410.31,185,408.88,184.68,404.21,185.81Z" style="fill: rgb(38, 50, 56); transform-origin: 406.358px 193.289px;" id="el32f6u7uo6pu" class="animable"></path><path d="M408.45,199.89a47.89,47.89,0,0,1-2.31,5.24,10,10,0,0,1-4.12,3.94,16.47,16.47,0,0,1-6.85,1.46,66,66,0,0,1-6.89-.2c-2.54-.19-5.07-.46-7.59-.78-.11,0-.11.21,0,.23q3.61.75,7.31,1.14a70.58,70.58,0,0,0,7.7.48c4.25-.05,8.44-1.34,11-5a20.94,20.94,0,0,0,2.83-6.17C409.64,199.76,408.66,199.41,408.45,199.89Z" id="el7bejp1zpa1o" class="animable" style="transform-origin: 395.073px 205.53px;"></path><path d="M159.8,286.07s23.07,1.86,42.57-3.42,25.72-16.75,49.49-13.37c10.29,1.46,14.17,2.93,19.64,6.5,7.16,4.67,14.92,3.36,15.26-7.38.56-18.26-17.42-42.34,7.47-74.85-16.63,12.55-26,8.69-65.93,32.46C203.24,240.92,173.33,255.75,159.8,286.07Z" style="fill: rgb(55, 71, 79); transform-origin: 227.015px 239.969px;" id="el4gkprldzz0r" class="animable"></path><path d="M229.47,231.36a38.5,38.5,0,0,1,5,24.87c-.51,3.66-1.78,7.12-2.57,10.63-.35,1.56-.47,9,1.94,9.43a62.88,62.88,0,0,1-38.7-24.46,13.62,13.62,0,0,0,2.8,11c-5.41-1.49-10.28-4.41-15.36-6.79-.45-.23-.92-.43-1.38-.64-21.3-8.49-30.8,2.07-34.7,22.56a31.44,31.44,0,0,1,9.22-8.16,59.27,59.27,0,0,0-2,36.87c-.44,2.78-.77,5.67-1,8.67-.77,11.31.17,20.24,2.2,27.38-15.11-5-29.58-11-34.53-31.34,2.31,2.76,3.15,3.88,6.34,5.52-12.76-22-13.88-48.21-6.09-72.44,8.91-29.42,36.25-59,69.44-53.52a20.87,20.87,0,0,0-10.65,6.65c9.29-2.67,20.83-1.56,33.56,3.23,9.33,3.5,17.44,11.84,22.4,21,.2.35.38.7.56,1,3.38,6.6,4.27,14.15,5.11,21.5A71.18,71.18,0,0,0,229.47,231.36Z" style="fill: rgb(38, 50, 56); transform-origin: 178.4px 266.5px;" id="elllor3uypue" class="animable"></path><path d="M222.55,245.21A63.57,63.57,0,0,0,212,210.63a53.56,53.56,0,0,1,14.24,2.72A35.09,35.09,0,0,0,217,202.68a31.86,31.86,0,0,0-4-1.81c-12.73-4.79-24.27-5.9-33.56-3.23A20.87,20.87,0,0,1,190.13,191c-33.19-5.53-60.53,24.1-69.44,53.52-6.94,21.6-6.8,44.77,2.35,65.12a189.55,189.55,0,0,1-1.13-22.33,98.92,98.92,0,0,1,1-12.16c.29-2,.65-4,1.07-6,.26-1.22.41-4.27,1.25-5.19a23.18,23.18,0,0,0-4.73,8c1-9.34,4.83-18.2,9.43-26.28,4.26-7.47,11.31-13.53,18.87-15.54-1.32-1.2-5.17-1.18-7.49-.67,3.88-5.32,12.3-5.48,19.12-3.46,4.75,1.4,10.4,5,15.17,6.26a43.82,43.82,0,0,0,7.34,1.49,27.19,27.19,0,0,0,3.72.09c.84,0,2.63-.64,3.38-.39a16.84,16.84,0,0,1-10.73-11.38c6.34,5.6,15.28,6.81,23.48,8.9S219.89,237.17,222.55,245.21Z" style="fill: rgb(240, 153, 122); transform-origin: 171.018px 249.985px;" id="elncnfmmhywx" class="animable"></path></g><g id="freepik--Muzzle--inject-66" class="animable" style="transform-origin: 360.249px 192.901px;"><path d="M357.94,192.16s-17.93,5.09-30,5.09-23.3-10.19-23.3-10.19-1.36.84-1.11,3.57c5.48,9.49,33.4,26.44,60.66,27.17l-2.81-2.74a127.86,127.86,0,0,1-21.61-5.38c-10.58-3.77-16.3-8.62-16.3-8.62s17.39.7,34.3-5.95Z" style="fill: rgb(0, 255, 136); transform-origin: 333.845px 202.43px;" id="ellljs3g6nv3g" class="animable"></path><g id="elvzewtsdfs4"><path d="M357.94,192.16s-17.93,5.09-30,5.09-23.3-10.19-23.3-10.19-1.36.84-1.11,3.57c5.48,9.49,33.4,26.44,60.66,27.17l-2.81-2.74a127.86,127.86,0,0,1-21.61-5.38c-10.58-3.77-16.3-8.62-16.3-8.62s17.39.7,34.3-5.95Z" style="fill: rgb(255, 255, 255); opacity: 0.2; transform-origin: 333.845px 202.43px;" class="animable"></path></g><path d="M415.37,186a2.8,2.8,0,0,0-.88-.44c-3-1.22-19.37-7.86-26.39-12.27-.47-.3-1-.71-1.58-1.15-2.31-1.78-5.48-4.21-8.75-2.19-3.52,2.17-3.93,4.59-4.44,7.66-.12.73-.25,1.52-.43,2.36-.34,1.54-3,4.16-5.85,6.94-3.54,3.47-7.55,7.41-9,11-2.6,6.59,1.05,18,6.62,20.64l.23.06c.42,0,5.35.26,11,.37l.16.11.08-.1c1.79,0,3.66.06,5.47.06a67.49,67.49,0,0,0,10.69-.57c4.75-1,10.81-4.74,15.05-7.73a21.81,21.81,0,0,0,8.71-13.09C417.52,191.35,417.27,187.41,415.37,186Zm.27,7.38a55.08,55.08,0,0,1-6.86,5.9c.37-1.46.74-2.87,1.05-4.13a37.7,37.7,0,0,0,6-4.16C415.8,191.72,415.74,192.52,415.64,193.4Zm-.42,2.58c-.61,1.84-3.31,5.28-7.64,8,.25-1,.5-2,.76-3a44,44,0,0,0,7-5.66C415.31,195.55,415.26,195.77,415.22,196Zm-19,7.92c-.61,1.37-1.16,2.73-1.64,4a183.68,183.68,0,0,1-21.4-1.31,63.48,63.48,0,0,1,1.08-6.58C382.34,201.79,391.56,203.62,396.27,203.9Zm13.45-15.8c.45.55.31,1.19,0,2.37l-.06.27a11.82,11.82,0,0,1-4.7,1.36A22.44,22.44,0,0,1,409.72,188.1Zm5.67-.07a5.47,5.47,0,0,1,.35,1.47,39,39,0,0,1-5.5,4.07l.5-2A24.44,24.44,0,0,0,415.39,188Zm-11.45,5.29h.41a12.45,12.45,0,0,0,5-1.08c-.15.61-.33,1.33-.53,2.12a24.89,24.89,0,0,1-7.51,2.65A39.88,39.88,0,0,1,403.94,193.32Zm-3.47,5.05a24.59,24.59,0,0,0,7.93-2.44c-.34,1.35-.72,2.83-1.1,4.32a18.23,18.23,0,0,1-9.13,2.47C398.87,201.26,399.63,199.79,400.47,198.37Zm-2.86,5.57h.05a19.56,19.56,0,0,0,9.23-2.11c-.26,1-.53,2-.78,3a25.42,25.42,0,0,1-10.12,3C396.47,206.57,397,205.26,397.61,203.94Zm16.51-17.21.38.15.16.11,0,0a25.63,25.63,0,0,1-3.61,2.89,3,3,0,0,0-.24-2.46,6.47,6.47,0,0,1,2.67-.8A2.27,2.27,0,0,1,414.12,186.73Zm-28.33-13.62a20.52,20.52,0,0,0,1.68,1.22c6,3.77,18.69,9.14,24.3,11.44a12.22,12.22,0,0,0-1.89.86,33.09,33.09,0,0,0-4.75-2l-1.37-.51c-6.45-2.4-17.12-6.39-24.62-13.47C381.45,169.79,383.74,171.54,385.79,173.11Zm-11.27,4.72c.47-2.85.8-4.78,3.5-6.59,7.69,7.42,18.7,11.53,25.32,14l1.37.51c1.89.71,3.14,1.19,4,1.6a25,25,0,0,0-5.27,4.73c-4-.55-20.55-7.71-29.37-11.7,0,0,0-.1.05-.14C374.26,179.38,374.39,178.58,374.52,177.83Zm-1,3.65c3.49,1.57,22.92,10.29,29,11.65a41.11,41.11,0,0,0-2.81,4.09c-6.31.19-27-8.05-31.41-9.84A34.07,34.07,0,0,0,373.54,181.48Zm-6.16,6.81c3.11,1.28,23.93,9.71,31.64,10.12-.81,1.42-1.55,2.87-2.22,4.31-7.71-.28-31.35-5.92-36.08-7.06A56.15,56.15,0,0,1,367.38,188.29Zm-8.2,10.12a11.53,11.53,0,0,1,.85-1.68c1.54.37,6.86,1.66,13.11,3a65.1,65.1,0,0,0-1.1,6.71c-6.52-.71-12-1.45-13.56-1.66A13.83,13.83,0,0,1,359.18,198.41Zm-.54,7.65c1.92.26,7.14,1,13.29,1.62-.47,6.22.86,8.76,2.3,10.12-4.6-.12-8.41-.29-9.14-.33C362.12,216,359.45,211.06,358.64,206.06Zm33.07,11.37c-3,.51-9.58.53-15.42.41-1.42-.9-3.7-2.47-3.16-10,6.66.71,14.18,1.34,19.68,1.34l1.38,0A81,81,0,0,0,391.71,217.43Zm3.81-8.36a26.47,26.47,0,0,0,10.21-2.74c-.63,2.41-1.12,4.32-1.31,5-3.55,2.34-7.8,4.78-11.4,5.76C393.39,215.68,394.21,212.67,395.52,209.07Zm11.17.76-.76.53c.3-1.17.74-2.86,1.24-4.79a26.21,26.21,0,0,0,7-5.69A20.58,20.58,0,0,1,406.69,209.83Z" style="fill: rgb(0, 255, 136); transform-origin: 387.097px 194.138px;" id="elk7oc98gx5fn" class="animable"></path><path d="M364.94,218.07c-5.1-2.44-8.9-13.36-6.32-19.88s14.06-14.35,14.86-18.08c.95-4.34.52-7.11,4.61-9.63,3.67-2.27,7.28,1.82,9.69,3.34l-7.13-6.57a5.2,5.2,0,0,0-5.81.82c-2.77,2.48-3.16,9.08-5,11.79s-7,6.4-11.89,11.68S349.27,212.66,364.94,218.07Z" style="fill: rgb(0, 255, 136); transform-origin: 370.734px 192.391px;" id="elyudi2rhpwxs" class="animable"></path><circle cx="359.43" cy="193.48" r="1.23" style="fill: rgb(224, 224, 224); transform-origin: 359.43px 193.48px;" id="elyuu2qo3yxb" class="animable"></circle><circle cx="319.04" cy="199.33" r="2.26" style="fill: rgb(224, 224, 224); transform-origin: 319.04px 199.33px;" id="el6jmgurvp2lk" class="animable"></circle><circle cx="371.97" cy="180.46" r="0.94" style="fill: rgb(224, 224, 224); transform-origin: 371.97px 180.46px;" id="els0itercy49" class="animable"></circle></g></g></g><defs>     <filter id="active" height="200%">         <feMorphology in="SourceAlpha" result="DILATED" operator="dilate" radius="2"></feMorphology>                <feFlood flood-color="#32DFEC" flood-opacity="1" result="PINK"></feFlood>        <feComposite in="PINK" in2="DILATED" operator="in" result="OUTLINE"></feComposite>        <feMerge>            <feMergeNode in="OUTLINE"></feMergeNode>            <feMergeNode in="SourceGraphic"></feMergeNode>        </feMerge>    </filter>    <filter id="hover" height="200%">        <feMorphology in="SourceAlpha" result="DILATED" operator="dilate" radius="2"></feMorphology>                <feFlood flood-color="#ff0000" flood-opacity="0.5" result="PINK"></feFlood>        <feComposite in="PINK" in2="DILATED" operator="in" result="OUTLINE"></feComposite>        <feMerge>            <feMergeNode in="OUTLINE"></feMergeNode>            <feMergeNode in="SourceGraphic"></feMergeNode>        </feMerge>            <feColorMatrix type="matrix" values="0   0   0   0   0                0   1   0   0   0                0   0   0   0   0                0   0   0   1   0 "></feColorMatrix>    </filter></defs></svg>